<?xml version="1.0" encoding="UTF-8"?>
<svg id="Capa_2" data-name="Capa 2" xmlns="http://www.w3.org/2000/svg" xmlns:xlink="http://www.w3.org/1999/xlink" viewBox="0 0 133.33 153.62">
  <defs>
    <style>
      .cls-1 {
        fill: none;
      }

      .cls-2 {
        fill: #263165;
      }

      .cls-3 {
        clip-path: url(#clippath-1);
      }

      .cls-4 {
        fill: #292f65;
      }

      .cls-5 {
        clip-path: url(#clippath);
      }

      .cls-6 {
        fill: #f9c33a;
      }
    </style>
    <clipPath id="clippath">
      <rect class="cls-1" width="133.33" height="153.62"/>
    </clipPath>
    <clipPath id="clippath-1">
      <rect class="cls-1" width="133.33" height="153.62"/>
    </clipPath>
  </defs>
  <g id="Capa_1-2" data-name="Capa 1">
    <g id="Logotipo_Oficial" data-name="Logotipo Oficial">
      <g class="cls-5">
        <g class="cls-3">
          <path class="cls-2" d="M0,140.74h4.08c2.49,0,4.53,1.84,4.53,4.09s-2.04,3.91-4.53,3.91H1.45v4.68H0v-12.68ZM7.15,144.82c0-1.46-1.38-2.66-3.07-2.66H1.45v5.17h2.63c1.69.02,3.07-1.12,3.07-2.51"/>
          <path class="cls-2" d="M17.83,153.42l-3.59-4.95h-2.4v4.95h-1.45v-12.68s3.79,0,3.79,0c2.39,0,4.34,1.81,4.34,4.04,0,1.64-1.14,3.06-2.71,3.52l3.82,5.11h-1.8ZM14.22,147.27c1.53,0,2.79-1.15,2.79-2.52,0-1.46-1.28-2.6-2.79-2.6h-2.4v5.1h2.4Z"/>
          <path class="cls-2" d="M20.44,147.09c0-3.59,2.98-6.53,6.61-6.53s6.62,2.93,6.62,6.53-2.98,6.5-6.63,6.5-6.6-2.93-6.6-6.5M32.2,147.08c0-2.79-2.32-5.08-5.16-5.08s-5.13,2.29-5.13,5.08,2.31,5.06,5.13,5.06,5.16-2.27,5.16-5.06"/>
          <path class="cls-2" d="M45.85,147.09c0,3.87-2.56,6.33-6.56,6.33h-3.59v-12.68h3.59c4.01,0,6.56,2.46,6.56,6.35M44.39,147.09c0-3-2-4.93-5.11-4.93h-2.12v9.83h2.15c3.1,0,5.09-1.92,5.09-4.9"/>
          <path class="cls-2" d="M47.76,148.5v-7.75h1.46v7.75c0,2.13,1.41,3.68,3.31,3.68s3.31-1.56,3.31-3.68v-7.75h1.46v7.75c0,2.96-2.03,5.12-4.77,5.12s-4.77-2.16-4.77-5.12"/>
          <path class="cls-2" d="M59.19,147.09c0-3.56,3-6.53,6.61-6.53,1.65.02,3.26.76,4.42,1.92l-.85,1.12c-.93-.94-2.22-1.59-3.63-1.59-2.59,0-5.09,2.2-5.09,5.07s2.48,5.06,5.11,5.06c1.45,0,2.69-.68,3.62-1.57l.84,1.15c-1.07,1.05-2.52,1.86-4.42,1.86-3.58,0-6.62-2.9-6.62-6.5"/>
          <path class="cls-2" d="M70.76,147.09c0-3.56,3-6.53,6.61-6.53,1.65.02,3.26.76,4.42,1.92l-.85,1.12c-.93-.94-2.22-1.59-3.63-1.59-2.59,0-5.09,2.2-5.09,5.07s2.48,5.06,5.11,5.06c1.45,0,2.69-.68,3.62-1.57l.84,1.15c-1.07,1.05-2.52,1.86-4.42,1.86-3.58,0-6.62-2.9-6.62-6.5"/>
          <rect class="cls-2" x="83.56" y="140.74" width="1.45" height="12.68"/>
          <path class="cls-2" d="M87.05,147.09c0-3.59,2.98-6.53,6.61-6.53s6.62,2.93,6.62,6.53-2.98,6.5-6.63,6.5-6.6-2.93-6.6-6.5M98.81,147.08c0-2.79-2.32-5.08-5.16-5.08s-5.13,2.29-5.13,5.08,2.31,5.06,5.13,5.06,5.16-2.27,5.16-5.06"/>
          <polygon class="cls-2" points="112.66 140.71 112.66 153.62 112.59 153.62 103.77 143.97 103.77 153.44 102.31 153.44 102.31 140.55 102.39 140.55 111.21 150.19 111.21 140.71 112.66 140.71"/>
          <polygon class="cls-2" points="116.83 142.15 116.83 146.16 122.12 146.16 122.12 147.59 116.83 147.59 116.83 152 122.94 152 122.94 153.42 115.38 153.42 115.38 140.74 122.94 140.74 122.94 142.15 116.83 142.15"/>
          <path class="cls-2" d="M124.43,151.16l1.12-.81c.58,1.09,1.9,1.81,3.27,1.81,1.68,0,3.06-.9,3.06-2.15,0-1.42-1.84-2.11-3.49-2.72-1.58-.61-3.35-1.37-3.35-3.33s1.78-3.41,4.04-3.41c1.91,0,3.21,1.03,3.69,2.28l-1.09.72c-.42-.95-1.45-1.6-2.61-1.6-1.38,0-2.56.9-2.56,2.03,0,1.23,1.41,1.68,3.07,2.3,1.93.77,3.76,1.65,3.76,3.69,0,2.19-2.05,3.61-4.53,3.61-2.12,0-3.76-1.09-4.38-2.44"/>
          <path class="cls-2" d="M133.33,133.33H0V0h133.33v133.33ZM1.86,131.48h129.62V1.86H1.86v129.62Z"/>
          <path class="cls-2" d="M125.83,97.57c0,17.85-12.76,28.26-28.12,28.26-17.37,0-31.05-13.27-31.05-29.49s13.75-29.67,30.61-29.67c7.64.07,15.8,3.46,21.57,8.89l-6.58,9.49c-4.61-4.34-9.87-6.81-15.14-6.81-9.14,0-18.39,7.48-18.39,18.1,0,9.88,7.97,17.99,19.49,17.99,8.41,0,14.44-4.16,14.85-11.01h-15.25v-10.55h27.72c.18,1.66.29,3.25.29,4.8"/>
          <path class="cls-4" d="M66.67,39.48c0,16.15-12.88,27.19-28.27,27.19-17.13,0-30.9-13.29-30.9-29.55S21.3,7.5,38.14,7.5c7.33.04,16.24,3.61,21.61,8.65l-3.77,5.39c-4.63-4.43-11.88-7.54-17.87-7.54-12.58,0-23.75,10.08-23.75,23.12s10.55,22.97,24.31,22.97c11.66,0,20.83-7.54,20.83-17.72,0-.43,0-.82-.04-1.14h-21.39v-5.86h28.34c.11.93.26,2.47.26,4.11"/>
          <rect class="cls-6" x="56.12" y="56.9" width="21.09" height="21.09" transform="translate(-28.16 66.89) rotate(-45)"/>
          <polygon class="cls-4" points="65.39 67.89 61.43 60.6 64.33 60.6 66.66 65.04 68.99 60.6 71.9 60.6 67.94 67.89 67.94 74.98 65.39 74.98 65.39 67.89"/>
        </g>
      </g>
    </g>
  </g>
</svg>